<?xml version="1.0" encoding="utf-8"?>
<!-- Generator: Adobe Illustrator 23.0.0, SVG Export Plug-In . SVG Version: 6.00 Build 0)  -->
<svg version="1.1" id="Layer_1" xmlns="http://www.w3.org/2000/svg" xmlns:xlink="http://www.w3.org/1999/xlink" x="0px" y="0px"
	 viewBox="0 0 100 100" style="enable-background:new 0 0 100 100;" xml:space="preserve">
<style type="text/css">
	.st0{fill:#323232;}
</style>
<g>
	<path class="st0" d="M78.1,7.6H21.9c-5.5,0-9.9,4.4-9.9,9.9v65.1c0,5.5,4.4,9.9,9.9,9.9h56.3c5.5,0,9.9-4.4,9.9-9.9V17.4
		C88,12,83.6,7.6,78.1,7.6z M25.8,88.5h-3.9c-3.3,0-5.9-2.7-5.9-5.9V17.4c0-3.3,2.7-5.9,5.9-5.9h3.9V88.5z M84.1,82.6
		c0,3.3-2.7,5.9-5.9,5.9H29.8v-77h48.4c3.3,0,5.9,2.7,5.9,5.9V82.6z"/>
	<path class="st0" d="M55.4,49.4c5.9,0,10.7-4.8,10.7-10.7s-4.8-10.7-10.7-10.7s-10.7,4.8-10.7,10.7c0,0,0,0,0,0
		C44.7,44.6,49.5,49.4,55.4,49.4z M55.4,31.8c3.8,0,6.8,3,6.8,6.8s-3,6.8-6.8,6.8c-3.8,0-6.8-3-6.8-6.8
		C48.6,34.9,51.7,31.9,55.4,31.8z"/>
	<path class="st0" d="M55.4,51.2C47.9,51,41,55,37.4,61.6c-0.1,0.3-0.2,0.6-0.2,0.8v8.1c0,1.1,0.9,2,2,2h32.5c1.1,0,2-0.9,2-2v-8.1
		c0-0.3-0.1-0.6-0.2-0.8C69.9,55,62.9,51,55.4,51.2z M69.7,68.6H41.2v-5.6c3-5,8.4-8,14.3-7.8c5.8-0.2,11.3,2.8,14.3,7.8V68.6z"/>
</g>
</svg>
