<?xml version="1.0" encoding="utf-8"?>
<!-- Generator: Adobe Illustrator 23.0.0, SVG Export Plug-In . SVG Version: 6.00 Build 0)  -->
<svg version="1.1" id="Layer_1" xmlns="http://www.w3.org/2000/svg" xmlns:xlink="http://www.w3.org/1999/xlink" x="0px" y="0px"
	 viewBox="0 0 100 100" style="enable-background:new 0 0 100 100;" xml:space="preserve">
<style type="text/css">
	.st0{fill:#323232;}
</style>
<g>
	<path class="st0" d="M61.9,79.4c-0.3,0.6-6.6,10-10.5,13.2c-2.5,2.2-5.7,3.7-9,4.2c-3.1,0.6-6.2-0.3-8.6-2.3
		c-2.1-1.9-3-4.7-2.4-7.5c0.6-3.2,11.4-41.5,11.5-42.9c0.2-2.2-1.4-4.1-3.5-4.4c-0.1,0-0.2,0-0.3,0c-1,0-2,0-3.1,0
		c0.3-0.8,0.5-1.6,0.7-2.4c0-0.2,25-3.8,26.4-3.8c-0.6,2-14.2,50-14.6,51.6c-0.3,1,0.1,2,1,2.5c0.8,0.5,1.9,0.4,2.5-0.4
		c2.6-2.8,5-5.7,7.3-8.8C60.2,78.7,61.1,78.9,61.9,79.4z"/>
	<path class="st0" d="M49.3,12.7c-0.1-5.3,4.2-9.7,9.5-9.7c0,0,0,0,0,0c5.4-0.1,9.9,4.1,10,9.5s-4.1,9.9-9.5,10
		c-5.4,0.1-9.9-4.1-10-9.5C49.3,12.9,49.3,12.8,49.3,12.7L49.3,12.7z"/>
</g>
</svg>
