<?xml version="1.0" encoding="utf-8"?>
<!-- Generator: Adobe Illustrator 23.0.0, SVG Export Plug-In . SVG Version: 6.00 Build 0)  -->
<svg version="1.1" id="Layer_1" xmlns="http://www.w3.org/2000/svg" xmlns:xlink="http://www.w3.org/1999/xlink" x="0px" y="0px"
	 viewBox="0 0 100 100" style="enable-background:new 0 0 100 100;" xml:space="preserve">
<style type="text/css">
	.st0{fill:none;stroke:#323232;stroke-width:5.3289;stroke-linecap:round;stroke-linejoin:round;}
	.st1{fill:none;stroke:#323232;stroke-width:7.9933;stroke-linecap:round;stroke-linejoin:round;}
</style>
<g>
	<path class="st0" d="M50,54.9c2.7,0,4.9-2.2,4.9-4.9c0-2.7-2.2-4.9-4.9-4.9c-2.7,0-4.9,2.2-4.9,4.9C45.1,52.7,47.3,54.9,50,54.9z"
		/>
	<path class="st0" d="M50,74.4c13.5,0,24.4-10.9,24.4-24.4c0-13.5-10.9-24.4-24.4-24.4c-13.5,0-24.4,10.9-24.4,24.4
		C25.6,63.5,36.5,74.4,50,74.4z"/>
	<path class="st1" d="M69.1,89.6L69.1,89.6"/>
	<path class="st1" d="M84.4,77.4L84.4,77.4"/>
	<path class="st1" d="M92.9,59.7L92.9,59.7"/>
	<path class="st1" d="M92.9,40.2L92.9,40.2"/>
	<path class="st1" d="M84.4,22.6L84.4,22.6"/>
	<path class="st1" d="M69.1,10.3L69.1,10.3"/>
	<path class="st1" d="M50,6L50,6"/>
	<path class="st1" d="M30.9,10.3L30.9,10.3"/>
	<path class="st1" d="M15.6,22.6L15.6,22.6"/>
	<path class="st1" d="M7.1,40.2L7.1,40.2"/>
	<path class="st1" d="M7.1,59.7L7.1,59.7"/>
	<path class="st1" d="M15.6,77.4L15.6,77.4"/>
	<path class="st1" d="M30.9,89.6L30.9,89.6"/>
	<path class="st1" d="M50,94L50,94"/>
</g>
</svg>
