<?xml version="1.0" encoding="utf-8"?>
<!-- Generator: Adobe Illustrator 23.0.0, SVG Export Plug-In . SVG Version: 6.00 Build 0)  -->
<svg version="1.1" id="Layer_1" xmlns="http://www.w3.org/2000/svg" xmlns:xlink="http://www.w3.org/1999/xlink" x="0px" y="0px"
	 viewBox="0 0 50 50" style="enable-background:new 0 0 50 50;" xml:space="preserve">
<style type="text/css">
	.st0{fill:none;stroke:#323232;stroke-width:0.25;stroke-miterlimit:10;}
	.st1{fill:#323232;}
</style>
<circle class="st0" cx="25" cy="25" r="24"/>
<path class="st1" d="M29.5,15c-1.8,0-3.2,1.5-3.2,3.2c0,0.4,0.1,0.7,0.2,1l-5.5,3.6c-0.6-0.7-1.4-1.1-2.4-1.1
	c-1.8,0-3.2,1.5-3.2,3.2c0,1.8,1.5,3.2,3.2,3.2c1,0,1.8-0.4,2.4-1.1l5.5,3.6c-0.1,0.3-0.2,0.7-0.2,1c0,1.8,1.5,3.2,3.2,3.2
	s3.2-1.5,3.2-3.2s-1.5-3.2-3.2-3.2c-0.9,0-1.8,0.4-2.4,1.1L21.6,26c0.1-0.3,0.2-0.7,0.2-1c0-0.4-0.1-0.7-0.2-1l5.5-3.6
	c0.6,0.7,1.4,1.1,2.4,1.1c1.8,0,3.2-1.5,3.2-3.2C32.7,16.5,31.2,15,29.5,15L29.5,15z M29.5,16.3c1.1,0,1.9,0.9,1.9,1.9
	c0,1.1-0.9,1.9-1.9,1.9c-1.1,0-1.9-0.9-1.9-1.9C27.5,17.1,28.4,16.3,29.5,16.3z M18.5,23.1c1.1,0,1.9,0.9,1.9,1.9
	c0,1.1-0.9,1.9-1.9,1.9c-1.1,0-1.9-0.9-1.9-1.9S17.4,23.1,18.5,23.1L18.5,23.1z M29.5,29.8c1.1,0,1.9,0.9,1.9,1.9
	c0,1.1-0.9,1.9-1.9,1.9c-1.1,0-1.9-0.9-1.9-1.9C27.5,30.7,28.4,29.8,29.5,29.8z"/>
</svg>
