<?xml version="1.0" encoding="utf-8"?>
<!-- Generator: Adobe Illustrator 23.0.0, SVG Export Plug-In . SVG Version: 6.00 Build 0)  -->
<svg version="1.1" id="Layer_1" xmlns="http://www.w3.org/2000/svg" xmlns:xlink="http://www.w3.org/1999/xlink" x="0px" y="0px"
	 viewBox="0 0 100 100" style="enable-background:new 0 0 100 100;" xml:space="preserve">
<style type="text/css">
	.st0{fill:#323232;}
</style>
<g>
	<path class="st0" d="M49.6,37.2C29.9,37.1,10,51.7,10.8,71.8c-3.5-3.6-6-7.6-7.7-11.7C-4.9,40.3,31.7,29.5,49.6,37.2z"/>
	<path class="st0" d="M38.6,43.9c-9.9,17-7.2,41.6,10.6,50.9c-4.9,1.2-9.5,1.4-13.9,0.8C14.2,92.7,23.1,55.6,38.6,43.9z"/>
	<path class="st0" d="M39.1,56.8c9.7,17,32.3,27.1,49.3,16.3c-1.4,4.8-3.5,9-6.2,12.5C69.1,102.4,41.5,76.1,39.1,56.8z"/>
	<path class="st0" d="M50.4,62.8C70.1,62.9,90,48.3,89.2,28.1c3.5,3.6,6,7.6,7.7,11.7C104.9,59.7,68.3,70.5,50.4,62.8z"/>
	<path class="st0" d="M61.4,56.1c9.9-17,7.2-41.6-10.6-50.9c4.9-1.2,9.5-1.4,13.9-0.8C85.8,7.3,76.8,44.4,61.4,56.1z"/>
	<path class="st0" d="M60.9,43.2c-9.7-17.1-32.3-27.1-49.3-16.3c1.4-4.8,3.5-9,6.2-12.5C30.9-2.4,58.6,23.9,60.9,43.2z"/>
</g>
</svg>
