<svg width="28" height="28" viewBox="0 0 28 28" fill="none" xmlns="http://www.w3.org/2000/svg">
<rect width="28" height="28" rx="14" fill="black" fill-opacity="0.3"/>
<g clip-path="url(#clip0_6424_26219)">
<path d="M8.80258 18.1667H20.6667V8.16667H7.33341V19.3208L8.80258 18.1667ZM9.37925 19.8333L5.66675 22.75V7.33333C5.66675 7.11232 5.75455 6.90036 5.91083 6.74408C6.06711 6.5878 6.27907 6.5 6.50008 6.5H21.5001C21.7211 6.5 21.9331 6.5878 22.0893 6.74408C22.2456 6.90036 22.3334 7.11232 22.3334 7.33333V19C22.3334 19.221 22.2456 19.433 22.0893 19.5893C21.9331 19.7455 21.7211 19.8333 21.5001 19.8333H9.37925Z" fill="white"/>
</g>
<defs>
<clipPath id="clip0_6424_26219">
<rect width="20" height="20" fill="white" transform="translate(4 4)"/>
</clipPath>
</defs>
</svg>
