<svg width="10" height="10" viewBox="0 0 10 10" fill="none" xmlns="http://www.w3.org/2000/svg">
<g clip-path="url(#clip0_782_2072)">
<path d="M8.75001 1.25C8.86052 1.25 8.9665 1.2939 9.04464 1.37204C9.12278 1.45018 9.16668 1.55616 9.16668 1.66667V3.95833C8.89041 3.95833 8.62546 4.06808 8.43011 4.26343C8.23476 4.45878 8.12501 4.72373 8.12501 5C8.12501 5.27627 8.23476 5.54122 8.43011 5.73657C8.62546 5.93192 8.89041 6.04167 9.16668 6.04167V8.33333C9.16668 8.44384 9.12278 8.54982 9.04464 8.62796C8.9665 8.7061 8.86052 8.75 8.75001 8.75H1.25001C1.1395 8.75 1.03352 8.7061 0.955382 8.62796C0.877242 8.54982 0.833344 8.44384 0.833344 8.33333V6.04167C1.10961 6.04167 1.37456 5.93192 1.56991 5.73657C1.76526 5.54122 1.87501 5.27627 1.87501 5C1.87501 4.72373 1.76526 4.45878 1.56991 4.26343C1.37456 4.06808 1.10961 3.95833 0.833344 3.95833V1.66667C0.833344 1.55616 0.877242 1.45018 0.955382 1.37204C1.03352 1.2939 1.1395 1.25 1.25001 1.25H8.75001ZM8.33334 2.08333H1.66668V3.32L1.73168 3.35375C2.01431 3.50794 2.25248 3.7323 2.42325 4.00524C2.59401 4.27817 2.69162 4.59048 2.70668 4.91208L2.70834 5C2.7084 5.33677 2.61773 5.66733 2.44586 5.95694C2.274 6.24656 2.0273 6.48452 1.73168 6.64583L1.66668 6.68V7.91667H8.33334V6.67958L8.26834 6.64625C7.98571 6.49206 7.74754 6.2677 7.57677 5.99476C7.40601 5.72183 7.3084 5.40952 7.29334 5.08792L7.29168 5C7.29168 4.29 7.68626 3.67208 8.26834 3.35417L8.33334 3.31958V2.08333Z" fill="#EEEE77"/>
</g>
<defs>
<clipPath id="clip0_782_2072">
<rect width="10" height="10" fill="white"/>
</clipPath>
</defs>
</svg>
