<svg width="28" height="28" viewBox="0 0 28 28" fill="none" xmlns="http://www.w3.org/2000/svg">
<rect width="28" height="28" rx="14" fill="black" fill-opacity="0.3"/>
<g clip-path="url(#clip0_6424_26223)">
<path d="M17.75 6.5C20.2816 6.5 22.3333 8.58333 22.3333 11.5C22.3333 17.3333 16.0833 20.6667 14 21.9167C11.9166 20.6667 5.66663 17.3333 5.66663 11.5C5.66663 8.58333 7.74996 6.5 10.25 6.5C11.8 6.5 13.1666 7.33333 14 8.16667C14.8333 7.33333 16.2 6.5 17.75 6.5ZM14.7783 19.5033C15.5125 19.04 16.175 18.5792 16.795 18.0858C19.2791 16.1108 20.6666 13.9525 20.6666 11.5C20.6666 9.53333 19.3858 8.16667 17.75 8.16667C16.8533 8.16667 15.8833 8.64167 15.1783 9.345L14 10.5233L12.8216 9.345C12.1166 8.64167 11.1466 8.16667 10.25 8.16667C8.63329 8.16667 7.33329 9.54667 7.33329 11.5C7.33329 13.9533 8.72163 16.1108 11.2041 18.0858C11.825 18.5792 12.4875 19.04 13.2216 19.5025C13.4708 19.66 13.7175 19.8108 14 19.9792C14.2825 19.8108 14.5291 19.66 14.7783 19.5033Z" fill="white"/>
</g>
<defs>
<clipPath id="clip0_6424_26223">
<rect width="20" height="20" fill="white" transform="translate(4 4)"/>
</clipPath>
</defs>
</svg>
