<svg width="31" height="30" viewBox="0 0 31 30" fill="none" xmlns="http://www.w3.org/2000/svg">
<rect x="0.5" width="30" height="30" rx="5" fill="#EEEE77"/>
<g clip-path="url(#clip0_59_3835)">
<path d="M17.9999 6.66666C18.5852 6.66659 19.1601 6.82061 19.6669 7.11322C20.1738 7.40583 20.5946 7.82672 20.8872 8.33357C21.1798 8.84043 21.3338 9.41538 21.3336 10.0006C21.3335 10.5859 21.1793 11.1607 20.8866 11.6675L24.6666 11.6667V13.3333H22.9999V21.6667C22.9999 21.8877 22.9121 22.0996 22.7558 22.2559C22.5996 22.4122 22.3876 22.5 22.1666 22.5H8.83325C8.61224 22.5 8.40028 22.4122 8.244 22.2559C8.08772 22.0996 7.99992 21.8877 7.99992 21.6667V13.3333H6.33325V11.6667L10.1133 11.6675C9.6998 10.9516 9.56716 10.1075 9.74107 9.29931C9.91498 8.49107 10.383 7.7763 11.0544 7.29379C11.7257 6.81128 12.5524 6.59545 13.3739 6.68823C14.1954 6.781 14.9531 7.17575 15.4999 7.79583C15.8121 7.44031 16.1966 7.15564 16.6278 6.96089C17.059 6.76615 17.5268 6.66583 17.9999 6.66666ZM14.6666 13.3333H9.66658V20.8333H14.6666V13.3333ZM21.3333 13.3333H16.3333V20.8333H21.3333V13.3333ZM12.9999 8.33333C12.5674 8.33139 12.1511 8.49765 11.839 8.79698C11.5268 9.0963 11.3432 9.50526 11.327 9.93744C11.3107 10.3696 11.4631 10.7912 11.752 11.1131C12.0408 11.435 12.4435 11.632 12.8749 11.6625L12.9999 11.6667H14.6666V10C14.6666 9.60171 14.524 9.21659 14.2646 8.91438C14.0052 8.61216 13.6461 8.41283 13.2524 8.35249L13.1241 8.3375L12.9999 8.33333ZM17.9999 8.33333C17.5794 8.3332 17.1744 8.492 16.8661 8.77791C16.5578 9.06382 16.369 9.4557 16.3374 9.87499L16.3333 10V11.6667H17.9999C18.4204 11.6668 18.8254 11.508 19.1337 11.2221C19.442 10.9362 19.6309 10.5443 19.6624 10.125L19.6666 10C19.6666 9.55797 19.491 9.13404 19.1784 8.82148C18.8659 8.50892 18.4419 8.33333 17.9999 8.33333Z" fill="#454549"/>
</g>
<defs>
<clipPath id="clip0_59_3835">
<rect width="20" height="20" fill="white" transform="translate(5.5 5)"/>
</clipPath>
</defs>
</svg>
