<svg width="32" height="32" viewBox="0 0 32 32" fill="none" xmlns="http://www.w3.org/2000/svg">
<path d="M15.9997 0C24.8366 0 32 7.16342 32 16.0003C32 24.8372 24.8366 32 15.9997 32C7.16278 32 0 24.8366 0 16.0003C0 7.16407 7.16343 0 15.9997 0ZM15.9997 29.6174C23.5174 29.609 29.609 23.5174 29.6174 16.0003C29.6174 8.47941 23.5206 2.38263 15.9997 2.38263C8.47876 2.38263 2.38263 8.47941 2.38263 16.0003C2.38263 23.5212 8.47941 29.6174 15.9997 29.6174ZM22.3853 15.3236C23.2887 16.2393 23.7958 17.473 23.7971 18.7599C23.7984 21.4631 21.6075 23.6566 18.9043 23.6579H9.55059V7.99369H18.1945C19.0617 7.99369 19.9107 8.24432 20.6399 8.7145C22.7337 10.0655 23.336 12.858 21.9851 14.9512C22.1282 15.0671 22.2642 15.1914 22.3931 15.3236H22.3853ZM21.2759 16.5281C19.5895 18.3415 16.7037 18.5546 16.7037 18.5546C12.8224 18.3842 13.1061 15.7782 13.1061 15.7782C13.1909 13.0588 16.7037 13.1436 16.7037 13.1436C18.7715 13.0873 19.9949 13.7498 20.6302 14.0782C20.8252 13.6786 20.9314 13.2408 20.9314 12.7933C20.9314 11.171 19.6167 9.85627 17.9944 9.85562H11.327V21.796H18.6427V21.7882C19.5914 21.7901 20.4942 21.3815 21.1192 20.6684C22.1638 19.4774 22.1923 17.745 21.2753 16.5275M19.5364 15.6279C18.6601 15.2504 17.7042 15.0503 16.7341 15.0405C16.3215 15.0302 15.911 15.0891 15.5224 15.2154C14.9816 15.4116 14.9188 15.6972 14.9188 15.8935C14.9188 16.2315 15.3281 16.4841 15.716 16.6052C16.725 16.9219 18.269 16.7218 19.5364 15.6279Z" fill="#00AEEF"/>
</svg>
