<svg width="24" height="24" viewBox="0 0 24 24" fill="none" xmlns="http://www.w3.org/2000/svg">
<path d="M3.21045 7.87845V10.264C3.21045 10.872 3.68645 11.3648 4.27365 11.3648H11.3537V6.77765H4.27365C3.68645 6.77765 3.21045 7.27045 3.21045 7.87845ZM19.7264 6.77765H12.6464V11.3656H19.7264C20.3137 11.3656 20.7896 10.8728 20.7896 10.2648V7.87845C20.7896 7.27045 20.3137 6.77765 19.7264 6.77765ZM4.19845 21.6872C4.19845 22.0808 4.50645 22.4 4.88645 22.4H11.3537V12.1776H4.19845V21.688V21.6872ZM12.6464 22.4H19.1128C19.4928 22.4 19.8008 22.0808 19.8008 21.6872V12.1776H12.6464V22.4Z" fill="#F3A141"/>
<path d="M7.46874 6.00322C7.69194 6.13202 8.14474 6.30322 9.50234 6.30322C10.2503 6.30322 10.9119 6.25042 10.9399 6.24722C11.0145 6.24068 11.0861 6.21558 11.1485 6.17422C11.2108 6.13285 11.2618 6.07654 11.2967 6.01042C11.3328 5.94307 11.3523 5.86809 11.3535 5.7917C11.3548 5.71531 11.3378 5.63972 11.3039 5.57122C11.0983 5.16002 10.0367 3.08242 9.27754 2.64322C9.003 2.48437 8.69152 2.4005 8.37434 2.40002C7.70074 2.40002 7.07834 2.77842 6.75034 3.38722C6.25194 4.31362 6.57434 5.48722 7.46874 6.00322ZM7.53594 3.84002C7.61662 3.68687 7.73738 3.55849 7.88532 3.4686C8.03326 3.37871 8.20283 3.33068 8.37594 3.32962C8.53754 3.32962 8.69834 3.37362 8.84074 3.45602C9.11994 3.61602 9.68474 4.47442 10.1719 5.36002C9.97034 5.36722 9.73994 5.37282 9.50234 5.37282C8.31434 5.37282 7.98074 5.23362 7.90714 5.19122C7.44474 4.92482 7.27834 4.31922 7.53594 3.84002ZM13.0599 6.24802C13.0879 6.25042 13.7495 6.30322 14.4975 6.30322C15.8551 6.30322 16.3079 6.13202 16.5311 6.00322C17.4255 5.48722 17.7471 4.31362 17.2487 3.38722C17.0926 3.09119 16.8591 2.84304 16.5732 2.6692C16.2872 2.49536 15.9594 2.40233 15.6247 2.40002C15.3103 2.40002 14.9983 2.48402 14.7223 2.64322C13.9623 3.08162 12.9015 5.15922 12.6959 5.57122C12.662 5.63983 12.6449 5.71556 12.6461 5.7921C12.6474 5.86864 12.6669 5.94377 12.7031 6.01122C12.7381 6.07734 12.7891 6.13365 12.8514 6.17502C12.9137 6.21638 12.9854 6.24148 13.0599 6.24802ZM15.1591 3.45602C15.3023 3.37362 15.4631 3.32962 15.6247 3.32962C15.9735 3.32962 16.2951 3.52482 16.4647 3.84002C16.7215 4.31842 16.5559 4.92402 16.0935 5.19122C16.0199 5.23362 15.6855 5.37282 14.4975 5.37282C14.2599 5.37282 14.0303 5.36722 13.8287 5.35922C14.3159 4.47442 14.8807 3.61682 15.1591 3.45522V3.45602Z" fill="#F3A141"/>
</svg>
