<svg width="18" height="16" viewBox="0 0 18 16" fill="none" xmlns="http://www.w3.org/2000/svg">
<path d="M0.210449 1.24631V3.63191C0.210449 4.23991 0.686449 4.73271 1.27365 4.73271H8.35365V0.145508H1.27365C0.686449 0.145508 0.210449 0.638308 0.210449 1.24631ZM16.7264 0.145508H9.64645V4.73351H16.7264C17.3137 4.73351 17.7896 4.24071 17.7896 3.63271V1.24631C17.7896 0.638308 17.3137 0.145508 16.7264 0.145508ZM1.19845 15.0551C1.19845 15.4487 1.50645 15.7679 1.88645 15.7679H8.35365V5.54551H1.19845V15.0559V15.0551ZM9.64645 15.7679H16.1128C16.4928 15.7679 16.8008 15.4487 16.8008 15.0551V5.54551H9.64645V15.7679Z" fill="#F3A141"/>
</svg>
