<svg width="61" height="61" viewBox="0 0 61 61" fill="none" xmlns="http://www.w3.org/2000/svg">
<g clip-path="url(#clip0_534_1282)">
<path d="M40.4059 10.6211C41.0672 10.6211 41.7014 10.8838 42.169 11.3514C42.6366 11.819 42.8993 12.4532 42.8993 13.1146V23.5871L55.8978 14.486C56.0847 14.3549 56.3039 14.2778 56.5317 14.2628C56.7595 14.2478 56.987 14.2957 57.1894 14.4012C57.3918 14.5066 57.5614 14.6656 57.6797 14.8609C57.798 15.0561 57.8604 15.28 57.8601 15.5083V45.6293C57.8604 45.8576 57.798 46.0815 57.6797 46.2768C57.5614 46.472 57.3918 46.631 57.1894 46.7364C56.987 46.8419 56.7595 46.8898 56.5317 46.8748C56.3039 46.8599 56.0847 46.7827 55.8978 46.6517L42.8993 37.5505V48.0231C42.8993 48.6844 42.6366 49.3186 42.169 49.7862C41.7014 50.2538 41.0672 50.5165 40.4059 50.5165H5.49737C4.83606 50.5165 4.20184 50.2538 3.73422 49.7862C3.26661 49.3186 3.00391 48.6844 3.00391 48.0231V13.1146C3.00391 12.4532 3.26661 11.819 3.73422 11.3514C4.20184 10.8838 4.83606 10.6211 5.49737 10.6211H40.4059ZM37.9124 15.608H7.99083V45.5296H37.9124V15.608ZM18.9621 22.662C19.1518 22.6615 19.3378 22.7151 19.4982 22.8166L30.3572 29.7285C30.4983 29.8187 30.6143 29.9429 30.6947 30.0898C30.7752 30.2367 30.8173 30.4014 30.8173 30.5688C30.8173 30.7362 30.7752 30.901 30.6947 31.0478C30.6143 31.1947 30.4983 31.3189 30.3572 31.4091L19.4982 38.3235C19.3469 38.4199 19.1725 38.4737 18.9932 38.4793C18.8139 38.4849 18.6365 38.4421 18.4795 38.3553C18.3225 38.2685 18.1919 38.141 18.1013 37.9862C18.0107 37.8314 17.9635 37.6551 17.9647 37.4757V23.6619C17.9647 23.1109 18.4135 22.662 18.9621 22.662ZM52.8732 22.6895L42.8993 29.6712V31.4615L52.8732 38.4432V22.6895Z" fill="white"/>
</g>
<defs>
<clipPath id="clip0_534_1282">
<rect width="59.8431" height="59.8431" fill="white" transform="translate(0.509766 0.648438)"/>
</clipPath>
</defs>
</svg>
