<svg width="24" height="24" viewBox="0 0 24 24" fill="none" xmlns="http://www.w3.org/2000/svg">
<rect width="24" height="24" rx="12" fill="#17171C" fill-opacity="0.6"/>
<g clip-path="url(#clip0_5989_3772)">
<path d="M10.6667 8.81334L8.402 10.6667H6V13.3333H8.402L10.6667 15.1867V8.81334ZM7.926 14.6667H5.33333C5.15652 14.6667 4.98695 14.5964 4.86193 14.4714C4.7369 14.3464 4.66666 14.1768 4.66666 14V10C4.66666 9.82319 4.7369 9.65362 4.86193 9.5286C4.98695 9.40358 5.15652 9.33334 5.33333 9.33334H7.926L11.4553 6.44534C11.5042 6.4053 11.5634 6.37996 11.626 6.37227C11.6887 6.36457 11.7523 6.37484 11.8094 6.40187C11.8664 6.4289 11.9146 6.47159 11.9484 6.52496C11.9821 6.57833 12 6.64019 12 6.70334V17.2967C12 17.3598 11.9821 17.4217 11.9484 17.475C11.9146 17.5284 11.8664 17.5711 11.8094 17.5981C11.7523 17.6252 11.6887 17.6354 11.626 17.6277C11.5634 17.62 11.5042 17.5947 11.4553 17.5547L7.92666 14.6667H7.926ZM17.6093 12L19.9667 14.3573L19.024 15.3L16.6667 12.9427L14.3093 15.3L13.3667 14.3573L15.724 12L13.3667 9.64267L14.3093 8.7L16.6667 11.0573L19.024 8.7L19.9667 9.64267L17.6093 12Z" fill="white"/>
</g>
<defs>
<clipPath id="clip0_5989_3772">
<rect width="16" height="16" fill="white" transform="translate(4 4)"/>
</clipPath>
</defs>
</svg>
