<svg width="24" height="24" viewBox="0 0 24 24" fill="none" xmlns="http://www.w3.org/2000/svg">
<rect width="24" height="24" rx="12" fill="#17171C" fill-opacity="0.6"/>
<g clip-path="url(#clip0_5997_3948)">
<path d="M12.6667 13.3333H11.3333C10.2397 13.3329 9.16682 13.6314 8.23058 14.1966C7.29435 14.7618 6.5304 15.5721 6.02133 16.54C6.00703 16.3603 5.99991 16.1802 6 16C6 12.318 8.98467 9.33332 12.6667 9.33332V5.66666L19.6667 11.3333L12.6667 17V13.3333ZM11.3333 12H14V14.2053L17.5473 11.3333L14 8.46132V10.6667H12.6667C11.9002 10.6658 11.1425 10.8305 10.4456 11.1496C9.74866 11.4687 9.12888 11.9345 8.62867 12.5153C9.48955 12.1741 10.4073 11.9993 11.3333 12Z" fill="white"/>
</g>
<defs>
<clipPath id="clip0_5997_3948">
<rect width="16" height="16" fill="white" transform="translate(4 4)"/>
</clipPath>
</defs>
</svg>
