<svg width="24" height="24" viewBox="0 0 24 24" fill="none" xmlns="http://www.w3.org/2000/svg">
<rect width="24" height="24" rx="12" fill="#17171C" fill-opacity="0.6"/>
<g clip-path="url(#clip0_5997_3946)">
<path d="M10.6667 8.81334L8.40202 10.6667H6.00002V13.3333H8.40202L10.6667 15.1867V8.81334ZM7.92602 14.6667H5.33335C5.15654 14.6667 4.98697 14.5964 4.86195 14.4714C4.73692 14.3464 4.66669 14.1768 4.66669 14V10C4.66669 9.82319 4.73692 9.65362 4.86195 9.5286C4.98697 9.40358 5.15654 9.33334 5.33335 9.33334H7.92602L11.4554 6.44534C11.5042 6.4053 11.5634 6.37996 11.6261 6.37227C11.6887 6.36457 11.7523 6.37484 11.8094 6.40187C11.8665 6.4289 11.9147 6.47159 11.9484 6.52496C11.9822 6.57833 12.0001 6.64019 12 6.70334V17.2967C12.0001 17.3598 11.9822 17.4217 11.9484 17.475C11.9147 17.5284 11.8665 17.5711 11.8094 17.5981C11.7523 17.6252 11.6887 17.6354 11.6261 17.6277C11.5634 17.62 11.5042 17.5947 11.4554 17.5547L7.92669 14.6667H7.92602ZM16.9374 17.4227L15.9934 16.4787C16.6253 15.9163 17.1309 15.2265 17.4768 14.4545C17.8227 13.6825 18.001 12.8459 18 12C18.0008 11.1107 17.8036 10.2324 17.4226 9.42892C17.0416 8.6254 16.4864 7.91683 15.7974 7.35467L16.744 6.408C17.5563 7.0957 18.2088 7.95233 18.6561 8.91813C19.1033 9.88394 19.3344 10.9357 19.3334 12C19.3334 14.1487 18.4094 16.0813 16.9374 17.4227ZM14.5754 15.0607L13.6274 14.1127C13.951 13.8638 14.2131 13.5438 14.3933 13.1775C14.5735 12.8112 14.6671 12.4083 14.6667 12C14.6667 11.0467 14.1667 10.21 13.4134 9.73867L14.3727 8.77934C14.8777 9.1508 15.2881 9.6359 15.5708 10.1954C15.8535 10.7549 16.0006 11.3731 16 12C16 13.228 15.4467 14.3267 14.5754 15.0607Z" fill="white"/>
</g>
<defs>
<clipPath id="clip0_5997_3946">
<rect width="16" height="16" fill="white" transform="translate(4 4)"/>
</clipPath>
</defs>
</svg>
