<svg width="24" height="24" viewBox="0 0 24 24" fill="none" xmlns="http://www.w3.org/2000/svg">
<rect width="24" height="24" rx="12" fill="#17171C" fill-opacity="0.3"/>
<g clip-path="url(#clip0_6424_26359)">
<path d="M10.6667 8.81343L8.40208 10.6668H6.00008V13.3334H8.40208L10.6667 15.1868V8.81343ZM7.92608 14.6668H5.33341C5.1566 14.6668 4.98703 14.5965 4.86201 14.4715C4.73699 14.3465 4.66675 14.1769 4.66675 14.0001V10.0001C4.66675 9.82328 4.73699 9.65372 4.86201 9.52869C4.98703 9.40367 5.1566 9.33343 5.33341 9.33343H7.92608L11.4554 6.44543C11.5042 6.40539 11.5634 6.38005 11.6261 6.37236C11.6888 6.36466 11.7524 6.37493 11.8094 6.40196C11.8665 6.42899 11.9147 6.47168 11.9485 6.52505C11.9822 6.57842 12.0001 6.64028 12.0001 6.70343V17.2968C12.0001 17.3599 11.9822 17.4218 11.9485 17.4751C11.9147 17.5285 11.8665 17.5712 11.8094 17.5982C11.7524 17.6253 11.6888 17.6355 11.6261 17.6278C11.5634 17.6201 11.5042 17.5948 11.4554 17.5548L7.92675 14.6668H7.92608ZM17.6094 12.0001L19.9667 14.3574L19.0241 15.3001L16.6667 12.9428L14.3094 15.3001L13.3667 14.3574L15.7241 12.0001L13.3667 9.64276L14.3094 8.7001L16.6667 11.0574L19.0241 8.7001L19.9667 9.64276L17.6094 12.0001Z" fill="white"/>
</g>
<defs>
<clipPath id="clip0_6424_26359">
<rect width="16" height="16" fill="white" transform="translate(4 4)"/>
</clipPath>
</defs>
</svg>
