<svg width="24" height="24" viewBox="0 0 24 24" fill="none" xmlns="http://www.w3.org/2000/svg">
<rect width="24" height="24" rx="12" fill="#17171C" fill-opacity="0.3"/>
<path d="M7.21166 9.38001L11.7117 6.20354C11.8845 6.08151 12.1155 6.08151 12.2883 6.20354L16.7883 9.38001C16.9211 9.47369 17 9.62603 17 9.78849V17.5C17 17.7761 16.7761 18 16.5 18H7.5C7.22386 18 7 17.7761 7 17.5V9.78849C7 9.62603 7.07893 9.47369 7.21166 9.38001Z" stroke="white" stroke-width="1.5"/>
<g clip-path="url(#clip0_6424_26354)">
<path d="M13.375 15.25C13.1429 15.25 12.9204 15.1578 12.7563 14.9937C12.5922 14.8296 12.5 14.6071 12.5 14.375C12.5 14.1429 12.5922 13.9204 12.7563 13.7563C12.9204 13.5922 13.1429 13.5 13.375 13.5C13.6071 13.5 13.8296 13.5922 13.9937 13.7563C14.1578 13.9204 14.25 14.1429 14.25 14.375C14.25 14.6071 14.1578 14.8296 13.9937 14.9937C13.8296 15.1578 13.6071 15.25 13.375 15.25ZM13.375 14.75C13.4745 14.75 13.5698 14.7105 13.6402 14.6402C13.7105 14.5698 13.75 14.4745 13.75 14.375C13.75 14.2755 13.7105 14.1802 13.6402 14.1098C13.5698 14.0395 13.4745 14 13.375 14C13.2755 14 13.1802 14.0395 13.1098 14.1098C13.0395 14.1802 13 14.2755 13 14.375C13 14.4745 13.0395 14.5698 13.1098 14.6402C13.1802 14.7105 13.2755 14.75 13.375 14.75ZM10.625 12.5C10.5101 12.5 10.3963 12.4774 10.2902 12.4334C10.184 12.3894 10.0875 12.325 10.0063 12.2437C9.92503 12.1625 9.86058 12.066 9.81661 11.9598C9.77263 11.8537 9.75 11.7399 9.75 11.625C9.75 11.5101 9.77263 11.3963 9.81661 11.2902C9.86058 11.184 9.92503 11.0875 10.0063 11.0063C10.0875 10.925 10.184 10.8606 10.2902 10.8166C10.3963 10.7726 10.5101 10.75 10.625 10.75C10.8571 10.75 11.0796 10.8422 11.2437 11.0063C11.4078 11.1704 11.5 11.3929 11.5 11.625C11.5 11.8571 11.4078 12.0796 11.2437 12.2437C11.0796 12.4078 10.8571 12.5 10.625 12.5ZM10.625 12C10.7245 12 10.8198 11.9605 10.8902 11.8902C10.9605 11.8198 11 11.7245 11 11.625C11 11.5255 10.9605 11.4302 10.8902 11.3598C10.8198 11.2895 10.7245 11.25 10.625 11.25C10.5255 11.25 10.4302 11.2895 10.3598 11.3598C10.2895 11.4302 10.25 11.5255 10.25 11.625C10.25 11.7245 10.2895 11.8198 10.3598 11.8902C10.4302 11.9605 10.5255 12 10.625 12ZM13.7677 10.8788L14.1213 11.2322L10.2325 15.1213L9.879 14.7677L13.7675 10.8788H13.7677Z" fill="white"/>
</g>
<defs>
<clipPath id="clip0_6424_26354">
<rect width="6" height="6" fill="white" transform="translate(9 10)"/>
</clipPath>
</defs>
</svg>
