<svg width="28" height="28" viewBox="0 0 28 28" fill="none" xmlns="http://www.w3.org/2000/svg">
<rect width="28" height="28" rx="14" fill="black" fill-opacity="0.3"/>
<g clip-path="url(#clip0_6424_26217)">
<path d="M9.83333 10.6667V9.00004C9.83333 7.89497 10.2723 6.83516 11.0537 6.05376C11.8351 5.27236 12.8949 4.83337 14 4.83337C15.1051 4.83337 16.1649 5.27236 16.9463 6.05376C17.7277 6.83516 18.1667 7.89497 18.1667 9.00004V10.6667H20.6667C20.8877 10.6667 21.0996 10.7545 21.2559 10.9108C21.4122 11.0671 21.5 11.279 21.5 11.5V21.5C21.5 21.7211 21.4122 21.933 21.2559 22.0893C21.0996 22.2456 20.8877 22.3334 20.6667 22.3334H7.33333C7.11232 22.3334 6.90036 22.2456 6.74408 22.0893C6.5878 21.933 6.5 21.7211 6.5 21.5V11.5C6.5 11.279 6.5878 11.0671 6.74408 10.9108C6.90036 10.7545 7.11232 10.6667 7.33333 10.6667H9.83333ZM9.83333 12.3334H8.16667V20.6667H19.8333V12.3334H18.1667V14H16.5V12.3334H11.5V14H9.83333V12.3334ZM11.5 10.6667H16.5V9.00004C16.5 8.337 16.2366 7.70111 15.7678 7.23227C15.2989 6.76343 14.663 6.50004 14 6.50004C13.337 6.50004 12.7011 6.76343 12.2322 7.23227C11.7634 7.70111 11.5 8.337 11.5 9.00004V10.6667Z" fill="white"/>
</g>
<defs>
<clipPath id="clip0_6424_26217">
<rect width="20" height="20" fill="white" transform="translate(4 4)"/>
</clipPath>
</defs>
</svg>
