<svg width="24" height="24" viewBox="0 0 24 24" fill="none" xmlns="http://www.w3.org/2000/svg">
<rect width="24" height="24" rx="12" fill="#17171C" fill-opacity="0.3"/>
<g clip-path="url(#clip0_6424_26364)">
<path d="M12.6667 13.3334H11.3333C10.2397 13.333 9.16682 13.6315 8.23058 14.1967C7.29435 14.7619 6.5304 15.5722 6.02133 16.5401C6.00703 16.3604 5.99991 16.1803 6 16.0001C6 12.3181 8.98467 9.33341 12.6667 9.33341V5.66675L19.6667 11.3334L12.6667 17.0001V13.3334ZM11.3333 12.0001H14V14.2054L17.5473 11.3334L14 8.46141V10.6667H12.6667C11.9002 10.6659 11.1425 10.8306 10.4456 11.1497C9.74866 11.4688 9.12888 11.9346 8.62867 12.5154C9.48955 12.1742 10.4073 11.9994 11.3333 12.0001Z" fill="white"/>
</g>
<defs>
<clipPath id="clip0_6424_26364">
<rect width="16" height="16" fill="white" transform="translate(4 4)"/>
</clipPath>
</defs>
</svg>
