<svg width="24" height="24" viewBox="0 0 24 24" fill="none" xmlns="http://www.w3.org/2000/svg">
<rect width="24" height="24" rx="12" fill="#17171C" fill-opacity="0.3"/>
<g clip-path="url(#clip0_7998_1113)">
<path d="M10.6666 8.81343L8.40196 10.6668H5.99996V13.3334H8.40196L10.6666 15.1868V8.81343ZM7.92596 14.6668H5.33329C5.15648 14.6668 4.98691 14.5965 4.86189 14.4715C4.73686 14.3465 4.66663 14.1769 4.66663 14.0001V10.0001C4.66663 9.82328 4.73686 9.65372 4.86189 9.52869C4.98691 9.40367 5.15648 9.33343 5.33329 9.33343H7.92596L11.4553 6.44543C11.5041 6.40539 11.5633 6.38005 11.626 6.37236C11.6887 6.36466 11.7523 6.37493 11.8093 6.40196C11.8664 6.42899 11.9146 6.47168 11.9484 6.52505C11.9821 6.57842 12 6.64028 12 6.70343V17.2968C12 17.3599 11.9821 17.4218 11.9484 17.4751C11.9146 17.5285 11.8664 17.5712 11.8093 17.5982C11.7523 17.6253 11.6887 17.6355 11.626 17.6278C11.5633 17.6201 11.5041 17.5948 11.4553 17.5548L7.92663 14.6668H7.92596ZM16.9373 17.4228L15.9933 16.4788C16.6253 15.9164 17.1309 15.2265 17.4768 14.4546C17.8227 13.6826 18.001 12.846 18 12.0001C18.0008 11.1108 17.8035 10.2325 17.4225 9.42901C17.0415 8.62549 16.4863 7.91692 15.7973 7.35476L16.744 6.4081C17.5563 7.09579 18.2088 7.95242 18.656 8.91823C19.1032 9.88403 19.3343 10.9358 19.3333 12.0001C19.3333 14.1488 18.4093 16.0814 16.9373 17.4228ZM14.5753 15.0608L13.6273 14.1128C13.9509 13.8639 14.213 13.5439 14.3932 13.1776C14.5735 12.8112 14.667 12.4084 14.6666 12.0001C14.6666 11.0468 14.1666 10.2101 13.4133 9.73876L14.3726 8.77943C14.8776 9.15089 15.288 9.636 15.5707 10.1955C15.8535 10.755 16.0005 11.3732 16 12.0001C16 13.2281 15.4466 14.3268 14.5753 15.0608Z" fill="white"/>
</g>
<defs>
<clipPath id="clip0_7998_1113">
<rect width="16" height="16" fill="white" transform="translate(4 4)"/>
</clipPath>
</defs>
</svg>
