<?xml version="1.0" encoding="utf-8"?>
<!-- Generator: Adobe Illustrator 23.0.0, SVG Export Plug-In . SVG Version: 6.00 Build 0)  -->
<svg version="1.1" id="Layer_1" xmlns="http://www.w3.org/2000/svg" xmlns:xlink="http://www.w3.org/1999/xlink" x="0px" y="0px"
	 viewBox="0 0 40 40" style="enable-background:new 0 0 40 40;" xml:space="preserve">
<style type="text/css">
	.st0{fill:none;stroke:#FFFFFF;stroke-width:1.5;stroke-miterlimit:10;}
	.st1{fill:#FFFFFF;}
</style>
<path class="st0" d="M15.6,7.8c6.6-2.5,14,0.9,16.5,7.6c2.5,6.6-0.9,14-7.6,16.5c-3.8,1.4-7.8,0.9-11-1L9.1,33l1-5
	c-0.9-1.1-1.6-2.3-2.1-3.7C5.5,17.6,8.9,10.3,15.6,7.8z"/>
<g>
	<path class="st1" d="M23.7,16.9c0,1.7-1.2,2.8-3.2,3.6l-0.1,2c0,0.2-0.1,0.3-0.3,0.3h-0.6c-0.2,0-0.2-0.1-0.2-0.3L19.2,20
		c0-0.1,0.1-0.2,0.2-0.3c2.2-0.7,3-1.6,3-2.8s-1-1.9-2.3-1.9c-1.1,0-2,0.5-2.8,1.2c-0.2,0.2-0.4,0.2-0.5,0l-0.2-0.3
		c-0.1-0.2-0.2-0.3,0-0.5c0.8-1,2.2-1.6,3.6-1.6C22.1,13.7,23.7,15.1,23.7,16.9z M20.7,25.4c0,0.5-0.4,0.8-0.8,0.8S19,25.9,19,25.4
		s0.4-0.8,0.8-0.8S20.7,25,20.7,25.4z"/>
</g>
</svg>
