<svg id="Layer_1" data-name="Layer 1" xmlns="http://www.w3.org/2000/svg" viewBox="0 0 50 50"><defs><style>.cls-1{fill:#fff;}</style></defs><title>Artboard 2go swirl logo</title><path class="cls-1" d="M47.5,27.12A22.5,22.5,0,1,1,21.35,4.92V3a2.65,2.65,0,0,1,4-2.3l6.29,3.64a2.65,2.65,0,0,1,0,4.58l-6.29,3.64a2.73,2.73,0,0,1-1.33.35,2.69,2.69,0,0,1-1.32-.35,2.64,2.64,0,0,1-1.32-2.29V8.82a18.67,18.67,0,1,0,16.84,5.11,1.92,1.92,0,0,1,2.72-2.72A22.35,22.35,0,0,1,47.5,27.12Z"/><path class="cls-1" d="M17.73,33.78c.09-1.63.13-3.33.13-5.08,0-1.2,0-2.21,0-3l-2.2,1.1-1.39-2.58,5.14-3.78h2.32l0,1c-.08,2.5-.12,5-.12,7.3,0,1.65,0,3.36.11,5.09l.05,1h-4Z"/><path class="cls-1" d="M34.28,22.52a5.33,5.33,0,0,0-4.5-2.12,5.55,5.55,0,0,0-4.71,2.29A8.72,8.72,0,0,0,23.49,28,8.06,8.06,0,0,0,25,33a5.3,5.3,0,0,0,4.5,2.12,5.52,5.52,0,0,0,4.71-2.29,8.68,8.68,0,0,0,1.58-5.28A8.12,8.12,0,0,0,34.28,22.52Zm-3.1,8.28a1.71,1.71,0,0,1-1.47.82,1.74,1.74,0,0,1-1.59-.93,5.93,5.93,0,0,1-.74-3.19,5.31,5.31,0,0,1,.67-2.77,1.64,1.64,0,0,1,1.53-.86,1.71,1.71,0,0,1,1.56.93A5.89,5.89,0,0,1,31.87,28,4.83,4.83,0,0,1,31.18,30.8Z"/></svg>