<?xml version="1.0" encoding="utf-8"?>
<!-- Generator: Adobe Illustrator 23.0.5, SVG Export Plug-In . SVG Version: 6.00 Build 0)  -->
<svg version="1.1" id="Layer_1" xmlns="http://www.w3.org/2000/svg" xmlns:xlink="http://www.w3.org/1999/xlink" x="0px" y="0px"
	 viewBox="0 0 22 21" style="enable-background:new 0 0 22 21;" xml:space="preserve">
<style type="text/css">
	.st0{fill:#FF0000;}
</style>
<path class="st0" d="M11,20.1c-0.1,0-0.3,0-0.4-0.1c-3.7-2.9-6.3-5.4-8-7.8C0.3,9-0.3,6.2,1,3.6c0.9-1.8,3.5-3.3,6.5-2.5
	c1.4,0.4,2.7,1.3,3.5,2.5c0.9-1.2,2.1-2.1,3.5-2.5c3-0.9,5.6,0.6,6.5,2.5c1.3,2.6,0.7,5.5-1.5,8.6c-1.8,2.4-4.3,4.9-8,7.8
	C11.3,20.1,11.1,20.1,11,20.1z"/>
</svg>
