<svg width="22" height="21" viewBox="0 0 22 21" fill="none" xmlns="http://www.w3.org/2000/svg">
<path d="M11.0009 20.1192C10.8536 20.1187 10.7106 20.0695 10.5942 19.9792C6.88755 17.0992 4.33422 14.6192 2.54755 12.1725C0.267555 9.04582 -0.252445 6.15915 1.00089 3.59249C1.89422 1.75915 4.46089 0.259152 7.46089 1.13249C8.89125 1.54564 10.1392 2.43167 11.0009 3.64582C11.8626 2.43167 13.1105 1.54564 14.5409 1.13249C17.5342 0.272485 20.1076 1.75915 21.0009 3.59249C22.2542 6.15915 21.7342 9.04582 19.4542 12.1725C17.6676 14.6192 15.1142 17.0992 11.4076 19.9792C11.2912 20.0695 11.1482 20.1187 11.0009 20.1192ZM5.75422 2.21915C5.04039 2.19137 4.33247 2.35852 3.70645 2.70265C3.08043 3.04678 2.55996 3.55491 2.20089 4.17249C1.16755 6.29249 1.63422 8.65248 3.62755 11.3792C5.74593 14.1115 8.2265 16.5428 11.0009 18.6058C13.7748 16.5448 16.2554 14.1159 18.3742 11.3858C20.3742 8.65249 20.8342 6.29249 19.8009 4.17915C19.1342 2.84582 17.1342 1.78582 14.9076 2.41249C14.1936 2.62349 13.5317 2.98163 12.9645 3.46387C12.3973 3.94611 11.9373 4.54176 11.6142 5.21249C11.564 5.33476 11.4786 5.43934 11.3687 5.51294C11.2589 5.58654 11.1297 5.62584 10.9976 5.62584C10.8654 5.62584 10.7362 5.58654 10.6264 5.51294C10.5166 5.43934 10.4311 5.33476 10.3809 5.21249C10.0602 4.54008 9.60104 3.94304 9.03348 3.4605C8.46592 2.97796 7.80279 2.62082 7.08755 2.41249C6.6542 2.28662 6.20547 2.22155 5.75422 2.21915Z" fill="white"/>
</svg>
