<svg id="Layer_1" data-name="Layer 1" xmlns="http://www.w3.org/2000/svg" viewBox="0 0 50 50"><defs><style>.cls-1{fill:#fff;}</style></defs><title>Artboard 1go swirl logo</title><path class="cls-1" d="M47.5,27.12A22.5,22.5,0,1,1,9.09,11.21a1.92,1.92,0,0,1,2.72,2.72A18.65,18.65,0,1,0,28.65,8.82V10.3a2.64,2.64,0,0,1-1.32,2.29,2.69,2.69,0,0,1-1.32.35,2.73,2.73,0,0,1-1.33-.35L18.39,9a2.65,2.65,0,0,1,0-4.58L24.68.73a2.65,2.65,0,0,1,4,2.3V4.92A22.53,22.53,0,0,1,47.5,27.12Z"/><path class="cls-1" d="M17.82,33.5c.09-1.62.13-3.33.13-5.07,0-1.2,0-2.22,0-3l-2.2,1.1-1.39-2.57,5.14-3.79h2.31l0,1c-.08,2.5-.11,5-.11,7.31,0,1.64,0,3.36.11,5.08l.05,1h-4Z"/><path class="cls-1" d="M34.37,22.25a5.32,5.32,0,0,0-4.51-2.12,5.53,5.53,0,0,0-4.71,2.29,8.77,8.77,0,0,0-1.58,5.28,8.06,8.06,0,0,0,1.5,5,5.29,5.29,0,0,0,4.5,2.12,5.53,5.53,0,0,0,4.71-2.29,8.72,8.72,0,0,0,1.58-5.28A8.12,8.12,0,0,0,34.37,22.25Zm-3.1,8.27a1.71,1.71,0,0,1-1.47.82,1.73,1.73,0,0,1-1.6-.92,6,6,0,0,1-.73-3.19,5.31,5.31,0,0,1,.67-2.77,1.62,1.62,0,0,1,1.53-.86,1.7,1.7,0,0,1,1.56.92A6,6,0,0,1,32,27.71,4.8,4.8,0,0,1,31.27,30.52Z"/></svg>