<svg width="1227" height="329" viewBox="0 0 1227 329" fill="none" xmlns="http://www.w3.org/2000/svg">
<path d="M510.829 4.47619H443.095L358.427 201.809L348.549 4.47619H275.17L300.571 324.242H371.127L461.44 122.588L491.073 324.242H563.041L677.343 4.47619H603.964L539.052 201.809L510.829 4.47619Z" fill="#07015B"/>
<path d="M733.788 325.683L777.534 5.91646H702.744L657.587 325.683H733.788Z" fill="#07015B"/>
<path d="M920.057 4.47619H821.278L777.533 324.242H850.912L873.49 154.277C869.257 239.26 908.768 324.242 1001.9 324.242H1007.55L1017.43 255.104H1013.19C999.081 255.104 986.381 252.223 975.091 243.581C963.802 234.938 955.336 223.415 952.513 210.452V209.011H953.924C970.858 204.69 986.381 197.488 1000.49 185.965C1013.19 174.442 1023.07 158.598 1030.13 142.753C1035.77 125.469 1037.18 108.184 1034.36 89.4591C1031.54 72.1744 1024.48 54.8898 1013.19 41.9263C1001.9 28.9628 987.792 18.8801 970.858 13.1185C953.924 7.35696 936.991 4.47619 920.057 4.47619ZM958.158 112.505C952.513 155.717 905.946 154.277 872.079 154.277L883.368 70.7341C911.591 70.7341 965.214 70.7341 958.158 112.505Z" fill="#07015B"/>
<path d="M1127.49 253.663V252.223L1161.36 4.47619H1087.98L1044.24 324.242H1216.39L1226.27 253.663H1127.49Z" fill="#07015B"/>
<path d="M139.702 67.8531C158.047 66.4127 174.98 70.7339 191.914 76.4955C208.847 83.6974 224.37 93.7801 237.07 106.744L245.537 24.6415C214.492 7.3568 179.214 -1.28553 143.935 0.154856C62.0898 0.154856 19.7558 43.3665 21.167 102.422C21.167 144.194 60.6786 170.121 100.19 187.405L118.535 194.607C155.224 207.571 165.102 217.654 163.691 233.498C162.28 250.782 135.469 259.425 111.479 259.425C91.7235 259.425 73.3788 255.104 56.4452 246.461C39.5117 237.819 23.9892 226.296 11.289 211.892L0 298.315C32.456 319.921 70.5566 331.444 108.657 328.563C186.269 328.563 245.537 285.352 244.126 223.415C244.126 181.644 225.781 158.598 177.803 138.432C177.803 138.432 155.224 128.349 148.169 125.469C118.535 118.267 100.19 109.624 100.19 95.2205C98.7792 79.3762 114.302 67.8531 139.702 67.8531Z" fill="#07015B"/>
</svg>
