<?xml version="1.0" encoding="utf-8"?>
<!-- Generator: Adobe Illustrator 23.0.5, SVG Export Plug-In . SVG Version: 6.00 Build 0)  -->
<svg version="1.1" id="Layer_1" xmlns="http://www.w3.org/2000/svg" xmlns:xlink="http://www.w3.org/1999/xlink" x="0px" y="0px"
	 viewBox="0 0 24 24" style="enable-background:new 0 0 24 24;" xml:space="preserve">
<style type="text/css">
	.st0{fill:#FFFFFF;}
</style>
<path class="st0" d="M2,16h3.9l5.3,4.3c0.1,0.1,0.2,0.1,0.3,0.1c0.3,0,0.5-0.2,0.5-0.5V4.1c0-0.1,0-0.2-0.1-0.3
	c-0.2-0.2-0.5-0.2-0.7-0.1L5.9,8H2C1.4,8,1,8.4,1,9v6C1,15.6,1.4,16,2,16z M23,12c0,3.3-1.4,6.2-3.7,8.3l-1.4-1.4
	c1.9-1.7,3.2-4.1,3.2-6.8c0-2.7-1.2-5.2-3.2-6.8l1.4-1.4C21.6,5.8,23,8.7,23,12z M18,12c0-1.9-0.9-3.6-2.3-4.7l-1.4,1.4
	c1,0.7,1.7,1.9,1.7,3.3s-0.7,2.6-1.7,3.3l1.4,1.4C17.1,15.6,18,13.9,18,12z"/>
</svg>
