<?xml version="1.0" encoding="utf-8"?>
<!-- Generator: Adobe Illustrator 23.0.5, SVG Export Plug-In . SVG Version: 6.00 Build 0)  -->
<svg version="1.1" id="Layer_1" xmlns="http://www.w3.org/2000/svg" xmlns:xlink="http://www.w3.org/1999/xlink" x="0px" y="0px"
	 viewBox="0 0 24 24" style="enable-background:new 0 0 24 24;" xml:space="preserve">
<style type="text/css">
	.st0{fill:#FFFFFF;}
</style>
<path class="st0" d="M5.9,16H2c-0.6,0-1-0.4-1-1V9c0-0.6,0.4-1,1-1h3.9l5.3-4.3c0.2-0.2,0.5-0.1,0.7,0.1C12,3.8,12,3.9,12,4.1v15.9
	c0,0.3-0.2,0.5-0.5,0.5c-0.1,0-0.2,0-0.3-0.1L5.9,16z M20.4,12l3.5,3.5l-1.4,1.4L19,13.4l-3.5,3.5l-1.4-1.4l3.5-3.5l-3.5-3.5
	l1.4-1.4l3.5,3.5l3.5-3.5l1.4,1.4L20.4,12z"/>
</svg>
