<?xml version="1.0" encoding="utf-8"?>
<!-- Generator: Adobe Illustrator 23.0.0, SVG Export Plug-In . SVG Version: 6.00 Build 0)  -->
<svg version="1.1" id="Layer_1" xmlns="http://www.w3.org/2000/svg" xmlns:xlink="http://www.w3.org/1999/xlink" x="0px" y="0px"
	 viewBox="0 0 40 40" style="enable-background:new 0 0 40 40;" xml:space="preserve">
<style type="text/css">
	.st0{fill:#FFFFFF;}
</style>
<g>
	<path class="st0" d="M18.7,27.9c2.2,0,4.2-0.7,5.9-2.1l4.5,4.5c0.2,0.2,0.4,0.2,0.6,0.2s0.4-0.1,0.6-0.2c0.4-0.4,0.4-0.9,0-1.2
		l-4.5-4.5c1.4-1.6,2.1-3.8,2.1-5.9c0-2.5-1-4.8-2.7-6.5c-1.8-1.8-4.1-2.7-6.5-2.7s-4.8,1-6.5,2.7s-2.7,4.1-2.7,6.5s1,4.8,2.7,6.5
		S16.2,27.9,18.7,27.9L18.7,27.9z M12.9,12.8c1.6-1.6,3.6-2.4,5.8-2.4s4.3,0.8,5.8,2.4c1.6,1.6,2.4,3.6,2.4,5.8s-0.8,4.3-2.4,5.8
		c-1.6,1.6-3.6,2.4-5.8,2.4s-4.3-0.8-5.8-2.4c-1.6-1.6-2.4-3.6-2.4-5.8S11.3,14.4,12.9,12.8L12.9,12.8z"/>
	<path class="st0" d="M13.7,19.7h4.1v4.1c0,0.5,0.4,0.8,0.8,0.8c0.5,0,0.8-0.4,0.8-0.8v-4.1h4.1c0.5,0,0.8-0.4,0.8-0.8
		S24.1,18,23.6,18h-4.1v-4.1c0-0.5-0.4-0.8-0.8-0.8c-0.5,0-0.8,0.4-0.8,0.8V18h-4.1c-0.5,0-0.8,0.4-0.8,0.8S13.2,19.7,13.7,19.7
		L13.7,19.7z"/>
</g>
</svg>
