<?xml version="1.0" encoding="utf-8"?>
<!-- Generator: Adobe Illustrator 23.0.5, SVG Export Plug-In . SVG Version: 6.00 Build 0)  -->
<svg version="1.1" id="Layer_1" xmlns="http://www.w3.org/2000/svg" xmlns:xlink="http://www.w3.org/1999/xlink" x="0px" y="0px"
	 viewBox="0 0 50 50" style="enable-background:new 0 0 50 50;" xml:space="preserve">
<style type="text/css">
	.st0{fill:none;}
	.st1{clip-path:url(#SVGID_2_);}
	.st2{fill:#616161;}
</style>
<rect x="62" y="11" class="st0" width="24" height="24"/>
<rect x="65.2" y="14.5" class="st0" width="17.1" height="17.1"/>
<g>
	<defs>
		
			<rect id="SVGID_1_" x="5.7" y="9.7" transform="matrix(0.7071 -0.7071 0.7071 0.7071 -11.5269 22.1716)" width="30.5" height="30.5"/>
	</defs>
	<clipPath id="SVGID_2_">
		<use xlink:href="#SVGID_1_"  style="overflow:visible;"/>
	</clipPath>
	<g class="st1">
		<path class="st2" d="M14.3,13.6c-0.3-0.6,0-0.9,0.7-0.6l22.9,11.4c0.6,0.3,0.6,0.9,0,1.2L15.8,37.9c-0.6,0.3-0.9,0.1-0.7-0.6
			L19.2,25L14.3,13.6z M18.9,17.8l3,7.1l-2.7,8.2l14.4-8L18.9,17.8L18.9,17.8z"/>
	</g>
</g>
</svg>
