<?xml version="1.0" encoding="utf-8"?>
<!-- Generator: Adobe Illustrator 23.0.5, SVG Export Plug-In . SVG Version: 6.00 Build 0)  -->
<svg version="1.1" id="Layer_1" xmlns="http://www.w3.org/2000/svg" xmlns:xlink="http://www.w3.org/1999/xlink" x="0px" y="0px"
	 viewBox="0 0 50 50" style="enable-background:new 0 0 50 50;" xml:space="preserve">
<style type="text/css">
	.st0{fill:none;}
	.st1{fill:#FFFFFF;}
</style>
<rect x="62" y="11" class="st0" width="24" height="24"/>
<g>
	<path class="st1" d="M25,13.4c3.5-3.2,9-3.1,12.4,0.3c3.4,3.4,3.5,8.8,0.4,12.4L25,38.9L12.3,26.1c-3.2-3.5-3-9,0.4-12.4
		C16,10.4,21.5,10.3,25,13.4z M35.2,15.9c-2.2-2.3-5.9-2.3-8.2-0.2l-2,1.8l-2-1.8c-2.4-2.1-6-2-8.2,0.2c-2.2,2.2-2.3,5.8-0.3,8.2
		L25,34.6l10.5-10.5C37.6,21.7,37.5,18.1,35.2,15.9z"/>
</g>
</svg>
