<svg width="18" height="18" viewBox="0 0 18 18" fill="none" xmlns="http://www.w3.org/2000/svg">
<g clip-path="url(#clip0_832_3639)">
<path d="M15.7553 2.24463C15.9439 2.24463 16.1247 2.31955 16.2581 2.45291C16.3914 2.58627 16.4664 2.76714 16.4664 2.95574V7.93352H15.0441V3.66685H3.66636V13.6224H7.93303V15.0446H2.95525C2.76665 15.0446 2.58578 14.9697 2.45242 14.8364C2.31906 14.703 2.24414 14.5221 2.24414 14.3335V2.95574C2.24414 2.76714 2.31906 2.58627 2.45242 2.45291C2.58578 2.31955 2.76665 2.24463 2.95525 2.24463H15.7553ZM15.7553 9.35574C15.9439 9.35574 16.1247 9.43066 16.2581 9.56402C16.3914 9.69738 16.4664 9.87825 16.4664 10.0669V14.3335C16.4664 14.5221 16.3914 14.703 16.2581 14.8364C16.1247 14.9697 15.9439 15.0446 15.7553 15.0446H10.0664C9.87777 15.0446 9.69689 14.9697 9.56353 14.8364C9.43017 14.703 9.35525 14.5221 9.35525 14.3335V10.0669C9.35525 9.87825 9.43017 9.69738 9.56353 9.56402C9.69689 9.43066 9.87777 9.35574 10.0664 9.35574H15.7553ZM15.0441 10.778H10.7775V13.6224H15.0441V10.778ZM5.59134 4.58632L7.19134 6.18632L8.64414 4.73352V8.64463H4.73303L6.18583 7.19183L4.58583 5.59183L5.59134 4.58632Z" fill="white"/>
</g>
<defs>
<clipPath id="clip0_832_3639">
<rect width="17.0667" height="17.0667" fill="white" transform="translate(0.822266 0.111328)"/>
</clipPath>
</defs>
</svg>
