<?xml version="1.0" encoding="utf-8"?>
<!-- Generator: Adobe Illustrator 23.0.5, SVG Export Plug-In . SVG Version: 6.00 Build 0)  -->
<svg version="1.1" id="Layer_1" xmlns="http://www.w3.org/2000/svg" xmlns:xlink="http://www.w3.org/1999/xlink" x="0px" y="0px"
	 viewBox="0 0 50 50" style="enable-background:new 0 0 50 50;" xml:space="preserve">
<style type="text/css">
	.st0{fill:none;}
	.st1{fill:#FFFFFF;}
</style>
<rect x="62" y="11" class="st0" width="24" height="24"/>
<rect x="65.2" y="14.5" class="st0" width="17.1" height="17.1"/>
<g>
	<path class="st1" d="M38.5,11.5c0.4,0,0.8,0.2,1.1,0.4c0.3,0.3,0.4,0.7,0.4,1.1v10.5h-3v-9H13v21h9v3H11.5c-0.4,0-0.8-0.2-1.1-0.4
		C10.2,37.8,10,37.4,10,37V13c0-0.4,0.2-0.8,0.4-1.1c0.3-0.3,0.7-0.4,1.1-0.4H38.5z M38.5,26.5c0.4,0,0.8,0.2,1.1,0.4
		c0.3,0.3,0.4,0.7,0.4,1.1v9c0,0.4-0.2,0.8-0.4,1.1c-0.3,0.3-0.7,0.4-1.1,0.4h-12c-0.4,0-0.8-0.2-1.1-0.4C25.2,37.8,25,37.4,25,37
		v-9c0-0.4,0.2-0.8,0.4-1.1s0.7-0.4,1.1-0.4H38.5z M37,29.5h-9v6h9V29.5z M17.1,16.4l3.4,3.4l3.1-3.1V25h-8.2l3.1-3.1l-3.4-3.4
		L17.1,16.4z"/>
</g>
</svg>
