<?xml version="1.0" encoding="utf-8"?>
<!-- Generator: Adobe Illustrator 23.0.5, SVG Export Plug-In . SVG Version: 6.00 Build 0)  -->
<svg version="1.1" id="Layer_1" xmlns="http://www.w3.org/2000/svg" xmlns:xlink="http://www.w3.org/1999/xlink" x="0px" y="0px"
	 viewBox="0 0 50 50" style="enable-background:new 0 0 50 50;" xml:space="preserve">
<style type="text/css">
	.st0{fill:none;}
	.st1{fill:#FFFFFF;}
</style>
<rect x="62" y="11" class="st0" width="24" height="24"/>
<rect x="65.2" y="14.5" class="st0" width="17.1" height="17.1"/>
<rect x="43" y="10.7" class="st0" width="24" height="24"/>
<g>
	<path class="st1" d="M24.6,29.4h-2.9c-2.4,0-4.8,0.7-6.8,1.9c-2.1,1.2-3.7,3-4.8,5.1c0-0.4,0-0.8,0-1.2c0-8.1,6.6-14.6,14.6-14.6
		v-8L40,25L24.6,37.4V29.4z M21.7,26.5h5.9v4.8l7.8-6.3l-7.8-6.3v4.8h-2.9c-1.7,0-3.3,0.4-4.9,1.1c-1.5,0.7-2.9,1.7-4,3
		C17.7,26.8,19.7,26.5,21.7,26.5z"/>
</g>
</svg>
