<?xml version="1.0" encoding="utf-8"?>
<!-- Generator: Adobe Illustrator 23.0.5, SVG Export Plug-In . SVG Version: 6.00 Build 0)  -->
<svg version="1.1" id="Layer_1" xmlns="http://www.w3.org/2000/svg" xmlns:xlink="http://www.w3.org/1999/xlink" x="0px" y="0px"
	 viewBox="0 0 50 50" style="enable-background:new 0 0 50 50;" xml:space="preserve">
<style type="text/css">
	.st0{fill:none;}
	.st1{fill:#FFFFFF;}
</style>
<rect x="62" y="11" class="st0" width="24" height="24"/>
<rect x="65.2" y="14.5" class="st0" width="17.1" height="17.1"/>
<rect x="43" y="10.7" class="st0" width="24" height="24"/>
<rect x="74" y="20" class="st0" width="24" height="24"/>
<g>
	<path class="st1" d="M14.7,16.4L10,11.8l2-2l4.7,4.7h21.9c0.2,0,0.4,0.1,0.6,0.2c0.2,0.1,0.4,0.2,0.5,0.4c0.1,0.2,0.2,0.4,0.3,0.6
		c0,0.2,0,0.4,0,0.7l-3.4,11.5c-0.1,0.3-0.3,0.6-0.5,0.7c-0.2,0.2-0.5,0.3-0.9,0.3H17.5v2.9h15.8v2.9H16.1c-0.4,0-0.7-0.2-1-0.4
		c-0.3-0.3-0.4-0.6-0.4-1V16.4z M17.5,17.3v8.6h16.5l2.6-8.6H17.5z M16.8,40.2c-0.6,0-1.1-0.2-1.5-0.6c-0.4-0.4-0.6-1-0.6-1.5
		c0-0.6,0.2-1.1,0.6-1.5c0.4-0.4,1-0.6,1.5-0.6c0.6,0,1.1,0.2,1.5,0.6c0.4,0.4,0.6,1,0.6,1.5c0,0.6-0.2,1.1-0.6,1.5
		C17.9,40,17.4,40.2,16.8,40.2z M34,40.2c-0.6,0-1.1-0.2-1.5-0.6c-0.4-0.4-0.6-1-0.6-1.5c0-0.6,0.2-1.1,0.6-1.5
		c0.4-0.4,1-0.6,1.5-0.6c0.6,0,1.1,0.2,1.5,0.6c0.4,0.4,0.6,1,0.6,1.5c0,0.6-0.2,1.1-0.6,1.5C35.2,40,34.6,40.2,34,40.2z"/>
</g>
</svg>
